<?xml version="1.0" encoding="UTF-8"?>
<svg width="301px" height="170px" viewBox="0 0 301 170" version="1.1" xmlns="http://www.w3.org/2000/svg" xmlns:xlink="http://www.w3.org/1999/xlink">
    <!-- Generator: Sketch 40.2 (33826) - http://www.bohemiancoding.com/sketch -->
    <title>bicycle_white</title>
    <desc>Created with Sketch.</desc>
    <defs></defs>
    <g id="Page-1" stroke="none" stroke-width="1" fill="none" fill-rule="evenodd">
        <g id="bicycle_white" fill="#FFFFFF">
            <path d="M59.6916588,169.789278 C26.7773734,169.789278 0,142.991977 0,110.054639 C0,77.1173004 26.7773734,50.32 59.6916588,50.32 C92.6059442,50.32 119.383318,77.116654 119.383318,110.054639 C119.383318,142.992624 92.6059442,169.789278 59.6916588,169.789278 L59.6916588,169.789278 Z M59.6916588,63.8941445 C34.2571588,63.8941445 13.5643777,84.6018251 13.5643777,110.054639 C13.5643777,135.507452 34.2571588,156.215133 59.6916588,156.215133 C85.1261588,156.215133 105.81894,135.507452 105.81894,110.054639 C105.81894,84.6018251 85.1261588,63.8941445 59.6916588,63.8941445 L59.6916588,63.8941445 Z" id="Shape"></path>
            <path d="M240.976337,169.789278 C208.062052,169.789278 181.284678,142.991977 181.284678,110.054639 C181.284678,77.1173004 208.062052,50.32 240.976337,50.32 C273.890622,50.32 300.667996,77.116654 300.667996,110.054639 C300.667996,142.992624 273.890622,169.789278 240.976337,169.789278 L240.976337,169.789278 Z M240.976337,63.8941445 C215.541837,63.8941445 194.849056,84.6018251 194.849056,110.054639 C194.849056,135.507452 215.541837,156.215133 240.976337,156.215133 C266.410837,156.215133 287.103618,135.507452 287.103618,110.054639 C287.103618,84.6018251 266.410837,63.8941445 240.976337,63.8941445 L240.976337,63.8941445 Z" id="Shape"></path>
            <path d="M245.822695,110.049468 C245.822695,111.807643 244.86027,113.501179 243.19379,114.360875 C240.816794,115.589011 237.897223,114.658213 236.66997,112.273042 L200.039691,41.1509886 L163.577352,98.0912928 L155.425807,92.8620152 L191.468296,36.5745627 L118.039798,36.5745627 L146.492695,92.3772243 L137.863167,96.7855894 L109.675099,41.500038 L70.099412,102.848707 L61.9607854,97.5935741 L104.585227,31.5198099 L92.3772876,7.57760456 L101.006815,3.16923954 L113.09203,26.8787452 L192.68909,26.8787452 L182.761258,7.5969962 C181.753618,5.64490494 182.160549,3.18863118 183.936837,1.66961977 C184.83467,0.900418251 186.010249,0.525513308 187.185828,0.525513308 L217.94467,0.525513308 L222.517803,0.870038023 C230.98585,0.870038023 238.019948,7.35136882 238.162052,15.7931939 C238.304155,24.4806464 230.972931,31.5844487 222.29173,31.5844487 L216.949948,31.5844487 C215.612888,31.5844487 214.398554,31.0414829 213.526558,30.1688593 C212.648103,29.2897719 212.105528,28.0745627 212.105528,26.7365399 C212.105528,24.0604943 214.275828,21.8886312 216.949948,21.8886312 L222.646987,21.8886312 C225.992867,21.8886312 228.686365,19.0574525 228.460292,15.6574525 C228.253597,12.5612548 225.557515,9.88585551 222.457086,9.88585551 L217.94467,10.2213308 L195.013766,10.2213308 L245.279474,107.832357 C245.648296,108.542738 245.822695,109.299658 245.822695,110.049468 L245.822695,110.049468 Z" id="Shape"></path>
            <path d="M118.041736,10.2239163 L82.4623734,10.2239163 C79.7863155,10.2239163 77.6179528,8.05334601 77.6179528,5.3760076 C77.6179528,2.6986692 79.7863155,0.528098859 82.4623734,0.528098859 L118.041736,0.528098859 C120.717794,0.528098859 122.886157,2.6986692 122.886157,5.3760076 C122.886157,8.05334601 120.717794,10.2239163 118.041736,10.2239163 L118.041736,10.2239163 Z" id="Shape"></path>
            <path d="M59.6871373,103.200342 C57.1499528,103.200342 55.0177618,101.224335 54.8562811,98.6555894 C54.6889871,95.9834221 56.7178305,93.681635 59.3880751,93.5135741 L149.759127,87.8434601 C152.441644,87.6786312 154.729502,89.7063498 154.897442,92.3785171 C155.064736,95.0506844 153.035893,97.3524715 150.365648,97.5205323 L59.9945966,103.190646 C59.8918948,103.19711 59.7885472,103.200342 59.6871373,103.200342 L59.6871373,103.200342 Z" id="Shape"></path>
            <path d="M150.067232,132.275513 C149.965176,132.275513 149.86312,132.272281 149.759127,132.265817 L59.3880751,126.595703 C56.7178305,126.428289 54.689633,124.125856 54.8562811,121.453688 C55.0235751,118.781521 57.3191845,116.758327 59.9945966,116.918631 L150.365648,122.588745 C153.035893,122.75616 155.06409,125.058593 154.897442,127.73076 C154.737253,130.299506 152.604416,132.275513 150.067232,132.275513 L150.067232,132.275513 Z" id="Shape"></path>
            <path d="M238.231811,15.8145247 C238.373914,24.5019772 230.822431,31.6962738 222.14123,31.6962738 L216.898275,31.6962738 C215.561215,31.6962738 214.34688,31.153308 213.474884,30.2806844 C212.596429,29.401597 211.994429,28.0635741 211.994429,26.7255513 C211.994429,24.0495057 214.353339,21.803308 217.027459,21.803308 L222.724498,21.803308 C226.070378,21.803308 228.47644,19.1634601 228.250367,15.7634601 C228.043672,12.6672624 225.540721,10.2206844 222.440292,10.2206844 L217.94467,10.2206844 L217.94467,0.52486692 L222.646987,0.52486692 C231.479981,0.525513308 238.089708,7.37269962 238.231811,15.8145247 L238.231811,15.8145247 Z" id="Shape"></path>
            <path d="M150.06271,132.275513 C137.819245,132.275513 127.857824,122.307567 127.857824,110.054639 C127.857824,97.8023574 137.819245,87.8344106 150.06271,87.8344106 C162.306176,87.8344106 172.267597,97.8023574 172.267597,110.054639 C172.267597,122.30692 162.306176,132.275513 150.06271,132.275513 L150.06271,132.275513 Z M150.06271,97.5295817 C143.161026,97.5295817 137.546665,103.147985 137.546665,110.053992 C137.546665,116.960646 143.161026,122.579049 150.06271,122.579049 C156.964395,122.579049 162.578755,116.960646 162.578755,110.053992 C162.578755,103.148631 156.964395,97.5295817 150.06271,97.5295817 L150.06271,97.5295817 Z" id="Shape"></path>
            <path d="M59.6916588,126.604753 C50.5725215,126.604753 43.1534528,119.180342 43.1534528,110.054639 C43.1534528,100.928935 50.5725215,93.5045247 59.6916588,93.5045247 C68.8107961,93.5045247 76.2298648,100.928935 76.2298648,110.054639 C76.2298648,119.180342 68.8107961,126.604753 59.6916588,126.604753 L59.6916588,126.604753 Z M59.6916588,103.200342 C55.9143026,103.200342 52.842294,106.275209 52.842294,110.054639 C52.842294,113.834068 55.9149485,116.908935 59.6916588,116.908935 C63.4683691,116.908935 66.5410236,113.834068 66.5410236,110.054639 C66.5410236,106.275209 63.4683691,103.200342 59.6916588,103.200342 L59.6916588,103.200342 Z" id="Shape"></path>
            <path d="M141.659255,142.276426 C141.187732,142.276426 140.707165,142.207262 140.233058,142.061179 C137.67585,141.273878 136.239964,138.560989 137.026697,136.001939 L145.430152,108.629354 C146.215594,106.069658 148.926532,104.631445 151.483094,105.417452 C154.040303,106.20346 155.478127,108.915057 154.692685,111.474753 L146.287938,138.85251 C145.647182,140.93711 143.73073,142.276426 141.659255,142.276426 L141.659255,142.276426 Z" id="Shape"></path>
        </g>
    </g>
</svg>